<?xml version="1.0" standalone="no"?>
<!DOCTYPE svg PUBLIC "-//W3C//DTD SVG 20010904//EN"
 "http://www.w3.org/TR/2001/REC-SVG-20010904/DTD/svg10.dtd">
<svg version="1.0" xmlns="http://www.w3.org/2000/svg"
 width="190.000000pt" height="190.000000pt" viewBox="0 0 190.000000 190.000000"
 preserveAspectRatio="xMidYMid meet">
<metadata>
Created by potrace 1.14, written by Peter Selinger 2001-2017
</metadata>
<g transform="translate(0.000000,190.000000) scale(0.100000,-0.100000)"
fill="#000000" stroke="none">
<path d="M1447 1403 c-3 -5 -19 -44 -36 -87 -40 -100 -85 -162 -158 -217 -32
-23 -79 -63 -105 -87 -65 -62 -80 -71 -123 -76 -55 -7 -83 11 -115 75 -33 65
-62 79 -109 54 -25 -13 -31 -13 -41 0 -9 11 -9 18 5 31 9 9 14 23 11 31 -3 8
-6 19 -6 24 0 4 -7 6 -15 3 -11 -5 -13 -2 -9 9 3 9 1 23 -4 33 -8 14 -12 12
-30 -14 -12 -16 -18 -33 -14 -38 4 -4 -1 -2 -11 6 -22 16 -57 24 -57 12 0 -5
6 -17 14 -27 12 -17 19 -18 54 -9 l41 11 -4 -29 c-4 -32 18 -61 54 -73 12 -3
21 -9 21 -13 1 -4 5 -26 9 -50 5 -23 5 -45 0 -47 -9 -6 -152 26 -225 50 -27 9
-83 34 -126 55 -42 21 -79 36 -82 33 -3 -3 -12 2 -21 11 -9 9 -25 16 -36 16
-10 0 -19 5 -19 10 0 6 -9 10 -20 10 -12 0 -32 7 -46 16 -32 22 -41 12 -17
-19 29 -39 104 -90 202 -138 49 -24 90 -48 91 -52 0 -4 -8 -3 -19 2 -10 6 -21
7 -25 4 -8 -9 14 -33 30 -33 8 0 22 -9 31 -20 10 -11 28 -20 40 -20 15 0 21
-5 17 -14 -3 -7 2 -16 10 -19 9 -4 16 -13 16 -20 0 -32 122 -114 181 -122 26
-3 28 -2 18 17 -17 31 -4 32 16 1 22 -34 43 -51 119 -103 32 -22 55 -40 52
-40 -16 0 -72 28 -84 43 -13 15 -34 6 -121 -50 -2 -1 0 -14 3 -28 12 -48 190
-204 235 -206 9 0 25 -2 36 -5 52 -11 117 -5 159 15 50 25 95 83 102 133 3 18
7 39 9 45 6 17 -22 34 -117 73 -93 38 -107 50 -135 119 -27 66 -23 79 7 22 24
-49 46 -59 119 -58 87 0 219 77 208 119 -4 13 2 20 18 24 16 4 22 11 18 21 -4
9 2 16 15 20 21 5 39 33 22 33 -18 0 -10 19 10 25 22 7 27 31 8 38 -9 4 -7 6
3 6 9 1 24 10 34 21 18 20 18 21 -1 35 -16 12 -16 14 -3 15 18 0 49 31 49 48
0 7 -8 12 -17 12 -13 0 -11 6 11 29 26 27 26 30 10 39 -16 9 -17 11 -1 27 24
24 22 48 -3 40 -11 -3 -20 -5 -20 -3 0 2 9 21 20 43 39 76 23 85 -35 19 -61
-69 -77 -73 -48 -13 26 54 35 110 18 116 -6 2 -24 -24 -39 -57 -30 -64 -55
-92 -42 -49 14 47 19 136 8 143 -6 3 -13 3 -15 -1z m-847 -511 c3 -3 -8 -2
-25 2 -16 4 -34 12 -40 17 -5 5 6 4 25 -2 19 -7 37 -14 40 -17z"/>
<path d="M664 1226 c-6 -25 8 -56 26 -56 17 0 17 41 -1 61 l-18 21 -7 -26z"/>
<path d="M677 1107 c-31 -7 -36 -12 -26 -23 14 -18 53 -18 67 -1 19 23 0 34
-41 24z"/>
</g>
</svg>
